<svg xmlns="http://www.w3.org/2000/svg" width="700" height="400"><defs><clipPath id="rablclip0"><rect x="27.5" y="83.5" width="507" height="264"/></clipPath></defs><g><rect x="0" y="0" width="700" height="400" fill="white" stroke="black" stroke-width="0"/><text x="0" y="15" style="cursor: default; -webkit-user-select: none; -webkit-font-smoothing: antialiased; font-family: Roboto2; font-size: 16px;" fill="#757575" dx="0px">Ghent, Belgium to Antwerp, Belgium</text><text x="0" y="36" style="cursor: default; -webkit-user-select: none; -webkit-font-smoothing: antialiased; font-family: Roboto2; font-size: 14px;" fill="#BDBDBD" dx="0px">Traveled by TRANSIT, time in minutes (m)</text><rect x="575.53125" y="83.5" width="12" height="12" rx="2" ry="2" fill="#4285F4"/><text x="595.53125" y="98.5" style="cursor: default; -webkit-user-select: none; -webkit-font-smoothing: antialiased; font-family: Roboto2;" fill="#757575" dx="0px">Google's Time</text><rect x="575.53125" y="118.5" width="12" height="12" rx="2" ry="2" fill="#DB4437"/><text x="595.53125" y="133.5" style="cursor: default; -webkit-user-select: none; -webkit-font-smoothing: antialiased; font-family: Roboto2;" fill="#757575" dx="0px">User's Time</text><rect x="27.5" y="83.5" width="507" height="264" fill="none"/></g><g><line x1="27.5" x2="534.5" y1="347.5" y2="347.5" stroke="#9E9E9E" stroke-width="1"/><line x1="27.5" x2="534.5" y1="294.70000000000005" y2="294.70000000000005" stroke="#E0E0E0" stroke-width="1"/><line x1="27.5" x2="534.5" y1="241.9" y2="241.9" stroke="#E0E0E0" stroke-width="1"/><line x1="27.5" x2="534.5" y1="189.10000000000002" y2="189.10000000000002" stroke="#E0E0E0" stroke-width="1"/><line x1="27.5" x2="534.5" y1="136.3" y2="136.3" stroke="#E0E0E0" stroke-width="1"/><line x1="27.5" x2="534.5" y1="83.5" y2="83.5" stroke="#E0E0E0" stroke-width="1"/></g><g><path d="M 39.5 344.86 L 76.65384615384616 344.86 L 113.8076923076923 344.86 L 150.96153846153845 344.86 L 188.1153846153846 344.86 L 225.26923076923077 344.86 L 262.4230769230769 344.86 L 299.57692307692304 344.86 L 336.7307692307692 344.86 L 373.88461538461536 344.86 L 411.03846153846155 344.86 L 448.1923076923077 344.86 L 485.34615384615387 344.86 L 522.5 344.86" fill="none" stroke="#4285F4" stroke-width="2" clip-path="url(#rablclip0)"/><circle cx="39.5" cy="344.86" r="10" fill="#4285F4" fill-opacity="0" clip-path="url(#rablclip0)"/><circle cx="76.65384615384616" cy="344.86" r="10" fill="#4285F4" fill-opacity="0" clip-path="url(#rablclip0)"/><circle cx="113.8076923076923" cy="344.86" r="10" fill="#4285F4" fill-opacity="0" clip-path="url(#rablclip0)"/><circle cx="150.96153846153845" cy="344.86" r="10" fill="#4285F4" fill-opacity="0" clip-path="url(#rablclip0)"/><circle cx="188.1153846153846" cy="344.86" r="10" fill="#4285F4" fill-opacity="0" clip-path="url(#rablclip0)"/><circle cx="225.26923076923077" cy="344.86" r="10" fill="#4285F4" fill-opacity="0" clip-path="url(#rablclip0)"/><circle cx="262.4230769230769" cy="344.86" r="10" fill="#4285F4" fill-opacity="0" clip-path="url(#rablclip0)"/><circle cx="299.57692307692304" cy="344.86" r="10" fill="#4285F4" fill-opacity="0" clip-path="url(#rablclip0)"/><circle cx="336.7307692307692" cy="344.86" r="10" fill="#4285F4" fill-opacity="0" clip-path="url(#rablclip0)"/><circle cx="373.88461538461536" cy="344.86" r="10" fill="#4285F4" fill-opacity="0" clip-path="url(#rablclip0)"/><circle cx="411.03846153846155" cy="344.86" r="10" fill="#4285F4" fill-opacity="0" clip-path="url(#rablclip0)"/><circle cx="448.1923076923077" cy="344.86" r="10" fill="#4285F4" fill-opacity="0" clip-path="url(#rablclip0)"/><circle cx="485.34615384615387" cy="344.86" r="10" fill="#4285F4" fill-opacity="0" clip-path="url(#rablclip0)"/><circle cx="522.5" cy="344.86" r="10" fill="#4285F4" fill-opacity="0" clip-path="url(#rablclip0)"/><path d="M 39.5 136.3 L 76.65384615384616 83.5 L 113.8076923076923 186.46 L 150.96153846153845 136.3 L 188.1153846153846 162.7 L 225.26923076923077 136.3 L 262.4230769230769 162.7 L 299.57692307692304 136.3 L 336.7307692307692 162.7 L 373.88461538461536 136.3 L 411.03846153846155 347.5 L 448.1923076923077 334.29999999999995 L 485.34615384615387 344.86 L 522.5 210.22" fill="none" stroke="#DB4437" stroke-width="2" clip-path="url(#rablclip0)"/><circle cx="39.5" cy="136.3" r="10" fill="#DB4437" fill-opacity="0" clip-path="url(#rablclip0)"/><circle cx="76.65384615384616" cy="83.5" r="10" fill="#DB4437" fill-opacity="0" clip-path="url(#rablclip0)"/><circle cx="113.8076923076923" cy="186.46" r="10" fill="#DB4437" fill-opacity="0" clip-path="url(#rablclip0)"/><circle cx="150.96153846153845" cy="136.3" r="10" fill="#DB4437" fill-opacity="0" clip-path="url(#rablclip0)"/><circle cx="188.1153846153846" cy="162.7" r="10" fill="#DB4437" fill-opacity="0" clip-path="url(#rablclip0)"/><circle cx="225.26923076923077" cy="136.3" r="10" fill="#DB4437" fill-opacity="0" clip-path="url(#rablclip0)"/><circle cx="262.4230769230769" cy="162.7" r="10" fill="#DB4437" fill-opacity="0" clip-path="url(#rablclip0)"/><circle cx="299.57692307692304" cy="136.3" r="10" fill="#DB4437" fill-opacity="0" clip-path="url(#rablclip0)"/><circle cx="336.7307692307692" cy="162.7" r="10" fill="#DB4437" fill-opacity="0" clip-path="url(#rablclip0)"/><circle cx="373.88461538461536" cy="136.3" r="10" fill="#DB4437" fill-opacity="0" clip-path="url(#rablclip0)"/><circle cx="411.03846153846155" cy="347.5" r="10" fill="#DB4437" fill-opacity="0" clip-path="url(#rablclip0)"/><circle cx="448.1923076923077" cy="334.29999999999995" r="10" fill="#DB4437" fill-opacity="0" clip-path="url(#rablclip0)"/><circle cx="485.34615384615387" cy="344.86" r="10" fill="#DB4437" fill-opacity="0" clip-path="url(#rablclip0)"/><circle cx="522.5" cy="210.22" r="10" fill="#DB4437" fill-opacity="0" clip-path="url(#rablclip0)"/></g><g/><g><text x="39.5" y="364.5" style="cursor: default; -webkit-user-select: none; -webkit-font-smoothing: antialiased; font-family: Roboto2; font-size: 12px;" fill="#757575" dx="-15.744140625px">Trip 0</text><text x="113.8076923076923" y="364.5" style="cursor: default; -webkit-user-select: none; -webkit-font-smoothing: antialiased; font-family: Roboto2; font-size: 12px;" fill="#757575" dx="-15.744140625px">Trip 2</text><text x="188.1153846153846" y="364.5" style="cursor: default; -webkit-user-select: none; -webkit-font-smoothing: antialiased; font-family: Roboto2; font-size: 12px;" fill="#757575" dx="-15.744140625px">Trip 4</text><text x="262.4230769230769" y="364.5" style="cursor: default; -webkit-user-select: none; -webkit-font-smoothing: antialiased; font-family: Roboto2; font-size: 12px;" fill="#757575" dx="-15.7412109375px">Trip 6</text><text x="336.7307692307692" y="364.5" style="cursor: default; -webkit-user-select: none; -webkit-font-smoothing: antialiased; font-family: Roboto2; font-size: 12px;" fill="#757575" dx="-15.744140625px">Trip 8</text><text x="411.03846153846155" y="364.5" style="cursor: default; -webkit-user-select: none; -webkit-font-smoothing: antialiased; font-family: Roboto2; font-size: 12px;" fill="#757575" dx="-19.212890625px">Trip 10</text><text x="485.34615384615387" y="364.5" style="cursor: default; -webkit-user-select: none; -webkit-font-smoothing: antialiased; font-family: Roboto2; font-size: 12px;" fill="#757575" dx="-19.212890625px">Trip 12</text><text x="273.12890625" y="396.5" style="cursor: default; -webkit-user-select: none; -webkit-font-smoothing: antialiased; font-family: Roboto2; font-size: 12px;" fill="#424242" dx="-33.3427734375px">Trip number</text><text x="21.5" y="351.5" style="cursor: default; -webkit-user-select: none; -webkit-font-smoothing: antialiased; font-family: Roboto2; font-size: 12px;" fill="#757575" dx="-6.9375px">0</text><text x="21.5" y="298.7125000000001" style="cursor: default; -webkit-user-select: none; -webkit-font-smoothing: antialiased; font-family: Roboto2; font-size: 12px;" fill="#757575" dx="-13.875px">20</text><text x="21.5" y="245.909375" style="cursor: default; -webkit-user-select: none; -webkit-font-smoothing: antialiased; font-family: Roboto2; font-size: 12px;" fill="#757575" dx="-13.875px">40</text><text x="21.5" y="193.10625000000005" style="cursor: default; -webkit-user-select: none; -webkit-font-smoothing: antialiased; font-family: Roboto2; font-size: 12px;" fill="#757575" dx="-13.869140625px">60</text><text x="21.5" y="140.30312500000002" style="cursor: default; -webkit-user-select: none; -webkit-font-smoothing: antialiased; font-family: Roboto2; font-size: 12px;" fill="#757575" dx="-13.875px">80</text><text x="21.5" y="87.5" style="cursor: default; -webkit-user-select: none; -webkit-font-smoothing: antialiased; font-family: Roboto2; font-size: 12px;" fill="#757575" dx="-20.8125px">100</text></g><g/><g/><g/></svg>